<svg width="24" height="24" viewBox="0 0 24 24" fill="none" xmlns="http://www.w3.org/2000/svg">
<path d="M20.6286 3.37143C20.8072 3.55003 20.8939 3.78571 20.8887 4.01974V9.33331C20.8887 9.82423 20.4907 10.2222 19.9998 10.2222C19.5089 10.2222 19.1109 9.82423 19.1109 9.33331V6.14616L14.4063 10.8507C14.0592 11.1979 13.4964 11.1979 13.1493 10.8507C12.8021 10.5036 12.8021 9.94079 13.1493 9.59366L17.8541 4.88886H14.6665C14.1756 4.88886 13.7776 4.49089 13.7776 3.99997C13.7776 3.50905 14.1756 3.11108 14.6665 3.11108H19.9997C20.0112 3.11108 20.0227 3.1113 20.0342 3.11174C20.2501 3.11998 20.4637 3.20655 20.6286 3.37143Z" fill="black"/>
<path d="M4.88886 14.6667C4.88886 14.1758 4.49089 13.7778 3.99997 13.7778C3.50905 13.7778 3.11108 14.1758 3.11108 14.6667V19.9997C3.11108 20.1252 3.13707 20.2449 3.18396 20.3531C3.22028 20.4371 3.27016 20.5166 3.33361 20.5884C3.35858 20.6166 3.38532 20.6433 3.41366 20.6682C3.48054 20.727 3.55415 20.774 3.63179 20.8093C3.74397 20.8605 3.86865 20.8889 3.99997 20.8889H9.33331C9.82423 20.8889 10.2222 20.491 10.2222 20.0001C10.2222 19.5091 9.82423 19.1112 9.33331 19.1112H6.14591L10.8507 14.4063C11.1979 14.0592 11.1979 13.4964 10.8507 13.1493C10.5036 12.8021 9.94079 12.8021 9.59366 13.1493L4.88886 17.8541V14.6667Z" fill="black"/>
</svg>
