<svg width="24" height="24" viewBox="0 0 24 24" fill="none" xmlns="http://www.w3.org/2000/svg">
<path d="M16.4142 9L21.7071 3.70711C22.0976 3.31658 22.0976 2.68342 21.7071 2.29289C21.3166 1.90237 20.6834 1.90237 20.2929 2.29289L15 7.58579V4C15 3.44772 14.5523 3 14 3C13.4477 3 13 3.44772 13 4V9.99931C13 10.0003 13 10.002 13 10.003C13.0004 10.1375 13.0273 10.2657 13.0759 10.3828C13.1243 10.4999 13.196 10.6096 13.2908 10.705C13.2922 10.7064 13.2936 10.7078 13.295 10.7092C13.4892 10.9023 13.743 10.9992 13.997 11C13.998 11 13.999 11 14 11H20C20.5523 11 21 10.5523 21 10C21 9.44772 20.5523 9 20 9H16.4142Z" fill="#fff"/>
<path d="M4 13C3.44772 13 3 13.4477 3 14C3 14.5523 3.44772 15 4 15H7.58579L2.29289 20.2929C1.90237 20.6834 1.90237 21.3166 2.29289 21.7071C2.68342 22.0976 3.31658 22.0976 3.70711 21.7071L9 16.4142V20C9 20.5523 9.44772 21 10 21C10.5523 21 11 20.5523 11 20V14.0007L11 13.997C10.9996 13.8625 10.9727 13.7343 10.9241 13.6172C10.8757 13.5001 10.804 13.3904 10.7092 13.295L10.705 13.2908C10.5248 13.1117 10.2769 13.0008 10.003 13L10 13H4Z" fill="#fff"/>
</svg>
