<svg width="24" height="24" viewBox="0 0 24 24" fill="none" xmlns="http://www.w3.org/2000/svg">
<path d="M19.0002 4C19.5525 4 20.0003 4.44772 20.0003 5V10.3333C20.0003 10.8856 19.5526 11.3333 19.0003 11.3333C18.448 11.3333 18.0003 10.8856 18.0003 10.3333V7.41389L12.7071 12.7071C12.3166 13.0976 11.6834 13.0976 11.2929 12.7071C10.9024 12.3166 10.9024 11.6834 11.2929 11.2929L16.5858 6H13.667C13.1147 6 12.667 5.55228 12.667 5C12.667 4.44772 13.1147 4 13.667 4H19.0002C19.0001 4 19.0003 4 19.0002 4Z" fill="black"/>
<path d="M6.77778 6.66675C6.5715 6.66675 6.37367 6.74869 6.22781 6.89455C6.08194 7.04042 6 7.23825 6 7.44453V17.2223C6 17.4286 6.08194 17.6264 6.22781 17.7723C6.37367 17.9181 6.5715 18.0001 6.77778 18.0001H16.5556C16.7618 18.0001 16.9597 17.9181 17.1055 17.7723C17.2514 17.6264 17.3333 17.4286 17.3333 17.2223V14.9998C17.3333 14.4475 17.781 13.9998 18.3333 13.9998C18.8856 13.9998 19.3333 14.4475 19.3333 14.9998V17.2223C19.3333 17.959 19.0407 18.6656 18.5197 19.1865C17.9988 19.7074 17.2923 20.0001 16.5556 20.0001H6.77778C6.04107 20.0001 5.33453 19.7074 4.81359 19.1865C4.29266 18.6656 4 17.959 4 17.2223V7.44453C4 6.70781 4.29266 6.00127 4.81359 5.48034C5.33453 4.95941 6.04107 4.66675 6.77778 4.66675H9C9.55228 4.66675 10 5.11446 10 5.66675C10 6.21903 9.55228 6.66675 9 6.66675H6.77778Z" fill="black"/>
</svg>
