<svg width="24" height="24" viewBox="0 0 24 24" fill="none" xmlns="http://www.w3.org/2000/svg">
<path d="M20.4989 11.1123L12.1992 19.412C11.1824 20.4288 9.80336 21 8.36542 21C6.92748 21 5.54844 20.4288 4.53166 19.412C3.51488 18.3952 2.94366 17.0162 2.94366 15.5782C2.94366 14.1403 3.51488 12.7613 4.53166 11.7445L12.8314 3.44477C13.5092 2.76692 14.4286 2.38611 15.3872 2.38611C16.3458 2.38611 17.2652 2.76692 17.9431 3.44477C18.6209 4.12262 19.0017 5.04199 19.0017 6.00061C19.0017 6.95924 18.6209 7.8786 17.9431 8.55645L9.63431 16.8562C9.29539 17.1951 8.8357 17.3855 8.35639 17.3855C7.87708 17.3855 7.4174 17.1951 7.07847 16.8562C6.73955 16.5172 6.54914 16.0576 6.54914 15.5782C6.54914 15.0989 6.73955 14.6392 7.07847 14.3003L14.746 6.64183" stroke="black" stroke-width="1.5" stroke-linecap="round" stroke-linejoin="round"/>
</svg>
