<svg width="24" height="24" viewBox="0 0 24 24" fill="none" xmlns="http://www.w3.org/2000/svg">
<path fill-rule="evenodd" clip-rule="evenodd" d="M21.3788 12.7441C21.7485 12.6978 22.0345 12.3823 22.0345 12C22.0345 11.6178 21.7486 11.3023 21.3789 11.2559C21.3106 11.1951 21.2317 11.142 21.1422 11.0989L3.08632 2.40536C2.2703 2.01246 1.39404 2.82003 1.71916 3.66535L4.92478 11.9999L1.71916 20.3345C1.39404 21.1799 2.2703 21.9874 3.08632 21.5945L21.1422 12.9009C21.2317 12.8579 21.3105 12.8048 21.3788 12.7441ZM17.9983 11.25L3.57191 4.30398L6.24346 11.25H17.9983ZM6.24342 12.75L17.998 12.75L3.57191 19.6959L6.24342 12.75Z" fill="black"/>
</svg>
