<svg width="30" height="30" viewBox="0 0 30 30" fill="none" xmlns="http://www.w3.org/2000/svg">
<path d="M22.2095 11.9458C22.7028 11.4525 22.7028 10.6527 22.2095 10.1594C21.7162 9.66611 20.9164 9.66611 20.4231 10.1594L12.6321 17.9504L9.57788 14.8962C9.08459 14.403 8.2848 14.403 7.7915 14.8962C7.29821 15.3895 7.29821 16.1893 7.7915 16.6826L11.7389 20.63C12.2322 21.1233 13.032 21.1233 13.5252 20.63L22.2095 11.9458Z" fill="#fff"/>
<path fill-rule="evenodd" clip-rule="evenodd" d="M30 15C30 23.2843 23.2843 30 15 30C6.71573 30 0 23.2843 0 15C0 6.71573 6.71573 0 15 0C23.2843 0 30 6.71573 30 15ZM28.3158 15C28.3158 22.3541 22.3541 28.3158 15 28.3158C7.64589 28.3158 1.68421 22.3541 1.68421 15C1.68421 7.64589 7.64589 1.68421 15 1.68421C22.3541 1.68421 28.3158 7.64589 28.3158 15Z" fill="#0040FD"/>
</svg>
