<svg width="22" height="20" viewBox="0 0 22 20" fill="none" xmlns="http://www.w3.org/2000/svg">
<path fill-rule="evenodd" clip-rule="evenodd" d="M20.3788 10.7441C20.7485 10.6978 21.0345 10.3823 21.0345 10C21.0345 9.61777 20.7486 9.30232 20.3789 9.25589C20.3106 9.19515 20.2317 9.14205 20.1422 9.09895L2.08632 0.405365C1.2703 0.0124633 0.394041 0.820031 0.719163 1.66535L3.92478 9.99995L0.719164 18.3345C0.394042 19.1799 1.2703 19.9874 2.08632 19.5945L20.1422 10.9009C20.2317 10.8579 20.3105 10.8048 20.3788 10.7441ZM16.9983 9.25L2.57191 2.30398L5.24346 9.25H16.9983ZM5.24342 10.75L16.998 10.75L2.57191 17.6959L5.24342 10.75Z" fill="black"/>
</svg>
