<svg width="20" height="21" viewBox="0 0 20 21" fill="none"  xmlns="http://www.w3.org/2000/svg">
<path d="M18.4989 10.1123L10.1992 18.412C9.18241 19.4288 7.80336 20 6.36542 20C4.92748 20 3.54844 19.4288 2.53166 18.412C1.51488 17.3952 0.943665 16.0162 0.943665 14.5782C0.943665 13.1403 1.51488 11.7613 2.53166 10.7445L10.8314 2.44477C11.5092 1.76692 12.4286 1.38611 13.3872 1.38611C14.3458 1.38611 15.2652 1.76692 15.9431 2.44477C16.6209 3.12262 17.0017 4.04199 17.0017 5.00061C17.0017 5.95924 16.6209 6.8786 15.9431 7.55645L7.63431 15.8562C7.29539 16.1951 6.8357 16.3855 6.35639 16.3855C5.87708 16.3855 5.4174 16.1951 5.07847 15.8562C4.73955 15.5172 4.54914 15.0576 4.54914 14.5782C4.54914 14.0989 4.73955 13.6392 5.07847 13.3003L12.746 5.64183" stroke="black" stroke-width="1.5" stroke-linecap="round" stroke-linejoin="round"/>
</svg>
